<svg xmlns="http://www.w3.org/2000/svg" xmlns:xlink="http://www.w3.org/1999/xlink" width="260" zoomAndPan="magnify" viewBox="0 0 194.87999 68.999997" height="92" preserveAspectRatio="xMidYMid meet" version="1.0"><defs><g/><clipPath id="755541211c"><path d="M 1.523438 23.292969 L 16.367188 23.292969 L 16.367188 45.398438 L 1.523438 45.398438 Z M 1.523438 23.292969 " clip-rule="nonzero"/></clipPath><clipPath id="c371f18654"><path d="M 0 22 L 18 22 L 18 47 L 0 47 Z M 0 22 " clip-rule="nonzero"/></clipPath><clipPath id="5ecca9eb10"><path d="M 16.566406 22.476562 L 17.890625 23.441406 L 1.324219 46.222656 L -0.00390625 45.261719 Z M 16.566406 22.476562 " clip-rule="nonzero"/></clipPath></defs><g fill="#ffffff" fill-opacity="1"><g transform="translate(20.259584, 44.091249)"><g><path d="M 0.984375 -10.8125 C 0.984375 -12.9375 1.425781 -14.828125 2.3125 -16.484375 C 3.195312 -18.148438 4.453125 -19.445312 6.078125 -20.375 C 7.710938 -21.300781 9.585938 -21.765625 11.703125 -21.765625 C 14.390625 -21.765625 16.648438 -21.046875 18.484375 -19.609375 C 20.316406 -18.171875 21.5 -16.21875 22.03125 -13.75 L 15.59375 -13.75 C 15.195312 -14.5625 14.65625 -15.179688 13.96875 -15.609375 C 13.289062 -16.046875 12.503906 -16.265625 11.609375 -16.265625 C 10.222656 -16.265625 9.117188 -15.769531 8.296875 -14.78125 C 7.472656 -13.789062 7.0625 -12.46875 7.0625 -10.8125 C 7.0625 -9.144531 7.472656 -7.816406 8.296875 -6.828125 C 9.117188 -5.835938 10.222656 -5.34375 11.609375 -5.34375 C 12.503906 -5.34375 13.289062 -5.554688 13.96875 -5.984375 C 14.65625 -6.410156 15.195312 -7.035156 15.59375 -7.859375 L 22.03125 -7.859375 C 21.5 -5.390625 20.316406 -3.4375 18.484375 -2 C 16.648438 -0.5625 14.390625 0.15625 11.703125 0.15625 C 9.585938 0.15625 7.710938 -0.304688 6.078125 -1.234375 C 4.453125 -2.160156 3.195312 -3.453125 2.3125 -5.109375 C 1.425781 -6.773438 0.984375 -8.675781 0.984375 -10.8125 Z M 0.984375 -10.8125 "/></g></g></g><g fill="#ffffff" fill-opacity="1"><g transform="translate(44.031736, 44.091249)"><g><path d="M 12.046875 0.21875 C 10.023438 0.21875 8.164062 -0.253906 6.46875 -1.203125 C 4.78125 -2.148438 3.441406 -3.460938 2.453125 -5.140625 C 1.472656 -6.828125 0.984375 -8.726562 0.984375 -10.84375 C 0.984375 -12.96875 1.472656 -14.867188 2.453125 -16.546875 C 3.441406 -18.234375 4.78125 -19.539062 6.46875 -20.46875 C 8.164062 -21.40625 10.023438 -21.875 12.046875 -21.875 C 14.078125 -21.875 15.929688 -21.40625 17.609375 -20.46875 C 19.296875 -19.539062 20.628906 -18.234375 21.609375 -16.546875 C 22.585938 -14.867188 23.078125 -12.96875 23.078125 -10.84375 C 23.078125 -8.726562 22.585938 -6.828125 21.609375 -5.140625 C 20.628906 -3.460938 19.289062 -2.148438 17.59375 -1.203125 C 15.90625 -0.253906 14.054688 0.21875 12.046875 0.21875 Z M 12.046875 -5.34375 C 13.566406 -5.34375 14.769531 -5.84375 15.65625 -6.84375 C 16.550781 -7.84375 17 -9.175781 17 -10.84375 C 17 -12.5625 16.550781 -13.910156 15.65625 -14.890625 C 14.769531 -15.878906 13.566406 -16.375 12.046875 -16.375 C 10.492188 -16.375 9.28125 -15.878906 8.40625 -14.890625 C 7.53125 -13.910156 7.09375 -12.5625 7.09375 -10.84375 C 7.09375 -9.15625 7.53125 -7.816406 8.40625 -6.828125 C 9.28125 -5.835938 10.492188 -5.34375 12.046875 -5.34375 Z M 12.046875 -5.34375 "/></g></g></g><g fill="#ffffff" fill-opacity="1"><g transform="translate(68.689994, 44.091249)"><g><path d="M 10.234375 -21.546875 C 12.492188 -21.546875 14.472656 -21.09375 16.171875 -20.1875 C 17.878906 -19.28125 19.191406 -18.007812 20.109375 -16.375 C 21.023438 -14.75 21.484375 -12.882812 21.484375 -10.78125 C 21.484375 -8.707031 21.019531 -6.851562 20.09375 -5.21875 C 19.164062 -3.59375 17.847656 -2.316406 16.140625 -1.390625 C 14.441406 -0.460938 12.472656 0 10.234375 0 L 1.71875 0 L 1.71875 -21.546875 Z M 9.78125 -5.28125 C 11.53125 -5.28125 12.90625 -5.757812 13.90625 -6.71875 C 14.90625 -7.675781 15.40625 -9.03125 15.40625 -10.78125 C 15.40625 -12.5625 14.90625 -13.929688 13.90625 -14.890625 C 12.90625 -15.859375 11.53125 -16.34375 9.78125 -16.34375 L 7.703125 -16.34375 L 7.703125 -5.28125 Z M 9.78125 -5.28125 "/></g></g></g><g fill="#ffffff" fill-opacity="1"><g transform="translate(91.759372, 44.091249)"><g><path d="M 15.34375 -3.515625 L 7.703125 -3.515625 L 6.546875 0 L 0.25 0 L 8.09375 -21.546875 L 15 -21.546875 L 22.828125 0 L 16.5 0 Z M 13.84375 -8.09375 L 11.515625 -15.0625 L 9.234375 -8.09375 Z M 13.84375 -8.09375 "/></g></g></g><g fill="#ffffff" fill-opacity="1"><g transform="translate(115.439855, 44.091249)"><g><path d="M 18.734375 -14.359375 C 18.734375 -13.054688 18.429688 -11.867188 17.828125 -10.796875 C 17.234375 -9.734375 16.328125 -8.878906 15.109375 -8.234375 C 13.898438 -7.597656 12.421875 -7.28125 10.671875 -7.28125 L 7.703125 -7.28125 L 7.703125 0 L 1.71875 0 L 1.71875 -21.546875 L 10.671875 -21.546875 C 12.398438 -21.546875 13.867188 -21.238281 15.078125 -20.625 C 16.296875 -20.019531 17.207031 -19.175781 17.8125 -18.09375 C 18.425781 -17.007812 18.734375 -15.765625 18.734375 -14.359375 Z M 10.078125 -12.046875 C 11.773438 -12.046875 12.625 -12.816406 12.625 -14.359375 C 12.625 -15.929688 11.773438 -16.71875 10.078125 -16.71875 L 7.703125 -16.71875 L 7.703125 -12.046875 Z M 10.078125 -12.046875 "/></g></g></g><g fill="#ffffff" fill-opacity="1"><g transform="translate(135.484265, 44.091249)"><g><path d="M 10.234375 -21.546875 C 12.492188 -21.546875 14.472656 -21.09375 16.171875 -20.1875 C 17.878906 -19.28125 19.191406 -18.007812 20.109375 -16.375 C 21.023438 -14.75 21.484375 -12.882812 21.484375 -10.78125 C 21.484375 -8.707031 21.019531 -6.851562 20.09375 -5.21875 C 19.164062 -3.59375 17.847656 -2.316406 16.140625 -1.390625 C 14.441406 -0.460938 12.472656 0 10.234375 0 L 1.71875 0 L 1.71875 -21.546875 Z M 9.78125 -5.28125 C 11.53125 -5.28125 12.90625 -5.757812 13.90625 -6.71875 C 14.90625 -7.675781 15.40625 -9.03125 15.40625 -10.78125 C 15.40625 -12.5625 14.90625 -13.929688 13.90625 -14.890625 C 12.90625 -15.859375 11.53125 -16.34375 9.78125 -16.34375 L 7.703125 -16.34375 L 7.703125 -5.28125 Z M 9.78125 -5.28125 "/></g></g></g><g fill="#ffffff" fill-opacity="1"><g transform="translate(158.55365, 44.091249)"><g><path d="M 16.328125 -21.546875 L 16.328125 -16.78125 L 7.703125 -16.78125 L 7.703125 -12.984375 L 14.0625 -12.984375 L 14.0625 -8.4375 L 7.703125 -8.4375 L 7.703125 0 L 1.71875 0 L 1.71875 -21.546875 Z M 16.328125 -21.546875 "/></g></g></g><g clip-path="url(#755541211c)"><path fill="#ffffff" d="M 1.523438 23.292969 L 16.367188 23.292969 L 16.367188 45.382812 L 1.523438 45.382812 Z M 1.523438 23.292969 " fill-opacity="1" fill-rule="nonzero"/></g><g clip-path="url(#c371f18654)"><g clip-path="url(#5ecca9eb10)"><path fill="#000000" d="M 16.566406 22.476562 L 17.890625 23.441406 L 1.324219 46.222656 L -0.00390625 45.261719 Z M 16.566406 22.476562 " fill-opacity="1" fill-rule="nonzero"/></g></g></svg>